<svg width="114" height="47" viewBox="0 0 114 47" fill="none" xmlns="http://www.w3.org/2000/svg">
<path d="M16.0653 23.5455V41H13.2528L5.02841 29.1108H4.88352V41H1.72159V23.5455H4.55114L12.767 35.4432H12.9205V23.5455H16.0653ZM27.718 35.4943V27.9091H30.8033V41H27.8118V38.6733H27.6754C27.38 39.4062 26.8942 40.0057 26.218 40.4716C25.5476 40.9375 24.7209 41.1705 23.7379 41.1705C22.88 41.1705 22.1214 40.9801 21.4624 40.5994C20.8089 40.2131 20.2976 39.6534 19.9283 38.9205C19.5589 38.1818 19.3743 37.2898 19.3743 36.2443V27.9091H22.4595V35.767C22.4595 36.5966 22.6868 37.2557 23.1413 37.7443C23.5959 38.233 24.1925 38.4773 24.9311 38.4773C25.3857 38.4773 25.826 38.3665 26.2521 38.1449C26.6783 37.9233 27.0277 37.5938 27.3004 37.1562C27.5788 36.7131 27.718 36.1591 27.718 35.4943ZM40.5128 27.9091V30.2955H32.9872V27.9091H40.5128ZM34.8452 24.7727H37.9304V37.0625C37.9304 37.4773 37.9929 37.7955 38.1179 38.017C38.2486 38.233 38.419 38.3807 38.6293 38.4602C38.8395 38.5398 39.0724 38.5795 39.3281 38.5795C39.5213 38.5795 39.6974 38.5653 39.8565 38.5369C40.0213 38.5085 40.1463 38.483 40.2315 38.4602L40.7514 40.8722C40.5866 40.929 40.3509 40.9915 40.044 41.0597C39.7429 41.1278 39.3736 41.1676 38.9361 41.179C38.1634 41.2017 37.4673 41.0852 36.848 40.8295C36.2287 40.5682 35.7372 40.1648 35.3736 39.6193C35.0156 39.0739 34.8395 38.392 34.8452 37.5739V24.7727ZM43.093 41V27.9091H46.0845V30.0909H46.2209C46.4595 29.3352 46.8686 28.7528 47.4482 28.3438C48.0334 27.929 48.701 27.7216 49.451 27.7216C49.6214 27.7216 49.8118 27.7301 50.022 27.7472C50.2379 27.7585 50.4169 27.7784 50.5589 27.8068V30.6449C50.4283 30.5994 50.2209 30.5597 49.9368 30.5256C49.6584 30.4858 49.3885 30.4659 49.1271 30.4659C48.5646 30.4659 48.0589 30.5881 47.6101 30.8324C47.1669 31.071 46.8175 31.4034 46.5618 31.8295C46.3061 32.2557 46.1783 32.7472 46.1783 33.304V41H43.093Z" fill="white"/>
<path d="M61.9631 41H58.5881L64.733 23.5455H68.6364L74.7898 41H71.4148L66.7528 27.125H66.6165L61.9631 41ZM62.0739 34.1562H71.2784V36.696H62.0739V34.1562ZM76.9524 41V27.9091H79.9439V30.0909H80.0803C80.3189 29.3352 80.728 28.7528 81.3075 28.3438C81.8928 27.929 82.5604 27.7216 83.3104 27.7216C83.4808 27.7216 83.6712 27.7301 83.8814 27.7472C84.0973 27.7585 84.2763 27.7784 84.4183 27.8068V30.6449C84.2876 30.5994 84.0803 30.5597 83.7962 30.5256C83.5178 30.4858 83.2479 30.4659 82.9865 30.4659C82.424 30.4659 81.9183 30.5881 81.4695 30.8324C81.0263 31.071 80.6768 31.4034 80.4212 31.8295C80.1655 32.2557 80.0376 32.7472 80.0376 33.304V41H76.9524ZM90.0007 41.2642C89.1712 41.2642 88.424 41.1165 87.7592 40.821C87.1001 40.5199 86.5774 40.0767 86.1911 39.4915C85.8104 38.9062 85.62 38.1847 85.62 37.3267C85.62 36.5881 85.7564 35.9773 86.0291 35.4943C86.3018 35.0114 86.674 34.625 87.1456 34.3352C87.6172 34.0455 88.1484 33.8267 88.7393 33.679C89.3359 33.5256 89.9524 33.4148 90.5888 33.3466C91.3558 33.267 91.978 33.196 92.4553 33.1335C92.9325 33.0653 93.2791 32.9631 93.495 32.8267C93.7166 32.6847 93.8274 32.4659 93.8274 32.1705V32.1193C93.8274 31.4773 93.6371 30.9801 93.2564 30.6278C92.8757 30.2756 92.3274 30.0994 91.6115 30.0994C90.8558 30.0994 90.2564 30.2642 89.8132 30.5938C89.3757 30.9233 89.0803 31.3125 88.9268 31.7614L86.0462 31.3523C86.2734 30.5568 86.6484 29.892 87.1712 29.358C87.6939 28.8182 88.3331 28.4148 89.0888 28.1477C89.8445 27.875 90.6797 27.7386 91.5945 27.7386C92.2251 27.7386 92.853 27.8125 93.478 27.9602C94.103 28.108 94.674 28.3523 95.1911 28.6932C95.7081 29.0284 96.1229 29.4858 96.4354 30.0653C96.7536 30.6449 96.9126 31.3693 96.9126 32.2386V41H93.9467V39.2017H93.8445C93.657 39.5653 93.3928 39.9062 93.0518 40.2244C92.7166 40.5369 92.2933 40.7898 91.782 40.983C91.2763 41.1705 90.6825 41.2642 90.0007 41.2642ZM90.8018 38.9972C91.4212 38.9972 91.9581 38.875 92.4126 38.6307C92.8672 38.3807 93.2166 38.0511 93.4609 37.642C93.7109 37.233 93.8359 36.7869 93.8359 36.304V34.7614C93.7393 34.8409 93.5746 34.9148 93.3416 34.983C93.1143 35.0511 92.8587 35.1108 92.5746 35.1619C92.2905 35.2131 92.0092 35.2585 91.7308 35.2983C91.4524 35.3381 91.2109 35.3722 91.0064 35.4006C90.5462 35.4631 90.1342 35.5653 89.7706 35.7074C89.407 35.8494 89.12 36.0483 88.9098 36.304C88.6996 36.554 88.5945 36.8778 88.5945 37.2756C88.5945 37.8438 88.8018 38.2727 89.2166 38.5625C89.6314 38.8523 90.1598 38.9972 90.8018 38.9972ZM100.151 41V23.5455H103.237V30.0739H103.364C103.523 29.7557 103.748 29.4176 104.038 29.0597C104.327 28.696 104.719 28.3864 105.214 28.1307C105.708 27.8693 106.339 27.7386 107.106 27.7386C108.117 27.7386 109.029 27.9972 109.842 28.5142C110.66 29.0256 111.308 29.7841 111.785 30.7898C112.268 31.7898 112.509 33.017 112.509 34.4716C112.509 35.9091 112.273 37.1307 111.802 38.1364C111.33 39.142 110.688 39.9091 109.876 40.4375C109.063 40.9659 108.143 41.2301 107.114 41.2301C106.364 41.2301 105.742 41.1051 105.248 40.8551C104.754 40.6051 104.356 40.304 104.055 39.9517C103.759 39.5937 103.529 39.2557 103.364 38.9375H103.185V41H100.151ZM103.177 34.4545C103.177 35.3011 103.296 36.0426 103.535 36.679C103.779 37.3153 104.129 37.8125 104.583 38.1705C105.043 38.5227 105.6 38.6989 106.254 38.6989C106.935 38.6989 107.506 38.517 107.967 38.1534C108.427 37.7841 108.773 37.2812 109.006 36.6449C109.245 36.0028 109.364 35.2727 109.364 34.4545C109.364 33.642 109.248 32.9205 109.015 32.2898C108.782 31.6591 108.435 31.1648 107.975 30.8068C107.515 30.4489 106.941 30.2699 106.254 30.2699C105.594 30.2699 105.035 30.4432 104.575 30.7898C104.114 31.1364 103.765 31.6222 103.526 32.2472C103.293 32.8722 103.177 33.608 103.177 34.4545Z" fill="white"/>
<rect x="53" y="28" width="3" height="13" fill="#3B953E"/>
<mask id="mask0_1_132" style="mask-type:luminance" maskUnits="userSpaceOnUse" x="53" y="1" width="16" height="27">
<path d="M55.7239 1.14697L68.0052 2.18067L65.9084 27.0926L53.6271 26.0589L55.7239 1.14697Z" fill="white"/>
</mask>
<g mask="url(#mask0_1_132)">
<mask id="mask1_1_132" style="mask-type:luminance" maskUnits="userSpaceOnUse" x="54" y="2" width="14" height="25">
<path d="M66.8375 9.58367C66.5658 7.07347 66.1201 4.57435 66.165 2.04152C64.9515 3.76616 63.3656 5.12651 61.7693 6.42177C60.1728 7.71702 58.5354 8.97873 57.1696 10.561C55.8038 12.1435 54.7099 14.0995 54.4589 16.2486C54.2715 17.8533 54.5639 19.4844 55.1003 20.9783C55.5482 22.2256 56.1615 23.3882 56.8208 24.5158C57.0139 22.4507 57.704 20.412 58.6579 18.5911C60.0728 15.8907 62.0362 13.5897 63.9808 11.3163C60.7893 15.6215 58.7605 20.9446 58.2207 26.4291C59.9679 25.3223 61.6745 24.1055 63.1422 22.5829C64.61 21.0604 65.8372 19.2115 66.4705 17.114C67.1996 14.6987 67.1093 12.0939 66.8375 9.58367Z" fill="white"/>
</mask>
<g mask="url(#mask1_1_132)">
<mask id="mask2_1_132" style="mask-type:luminance" maskUnits="userSpaceOnUse" x="54" y="2" width="14" height="25">
<path d="M66.8375 9.58367C66.5658 7.07347 66.1201 4.57435 66.165 2.04152C64.9515 3.76616 63.3656 5.12651 61.7693 6.42177C60.1728 7.71702 58.5354 8.97873 57.1696 10.561C55.8038 12.1435 54.7099 14.0995 54.4589 16.2486C54.2715 17.8533 54.5639 19.4844 55.1003 20.9783C55.5482 22.2256 56.1615 23.3882 56.8208 24.5158C57.0139 22.4507 57.704 20.412 58.6579 18.5911C60.0728 15.8907 62.0362 13.5897 63.9808 11.3163C60.7893 15.6215 58.7605 20.9446 58.2207 26.4291C59.9679 25.3223 61.6745 24.1055 63.1422 22.5829C64.61 21.0604 65.8372 19.2115 66.4705 17.114C67.1996 14.6987 67.1093 12.0939 66.8375 9.58367Z" fill="white"/>
</mask>
<g mask="url(#mask2_1_132)">
<path d="M53.7915 28.5499L70.2809 26.6128L68.0411 -0.293448L51.5518 1.64364L53.7915 28.5499Z" fill="url(#paint0_linear_1_132)"/>
</g>
</g>
</g>
<mask id="mask3_1_132" style="mask-type:luminance" maskUnits="userSpaceOnUse" x="40" y="7" width="14" height="19">
<path d="M41.4389 7.8165L53.7354 8.85148L52.2965 25.9469L40 24.9119L41.4389 7.8165Z" fill="white"/>
</mask>
<g mask="url(#mask3_1_132)">
<mask id="mask4_1_132" style="mask-type:luminance" maskUnits="userSpaceOnUse" x="41" y="7" width="12" height="19">
<path d="M41.8663 13.9532C41.7631 11.9046 41.7998 9.83329 41.4416 7.82386C42.6279 8.97798 44.0643 9.77438 45.5008 10.5169C46.9373 11.2596 48.4022 11.9683 49.6916 12.9813C50.9811 13.9945 52.1016 15.3545 52.5751 17.0208C52.9287 18.2652 52.9036 19.6172 52.6664 20.9045C52.4686 21.9791 52.1281 23.0162 51.7465 24.0337C51.3298 22.4238 50.5203 20.9248 49.5286 19.6472C48.0579 17.7523 46.2009 16.2749 44.3624 14.8161C47.4528 17.6675 49.7467 21.5404 50.8752 25.8112C49.3424 25.2459 47.8281 24.5857 46.465 23.6387C45.102 22.6917 43.889 21.4413 43.1176 19.8851C42.2293 18.0931 41.9695 16.002 41.8663 13.9532Z" fill="white"/>
</mask>
<g mask="url(#mask4_1_132)">
<mask id="mask5_1_132" style="mask-type:luminance" maskUnits="userSpaceOnUse" x="41" y="7" width="12" height="19">
<path d="M41.8663 13.9532C41.7631 11.9046 41.7998 9.83329 41.4416 7.82386C42.6279 8.97798 44.0643 9.77438 45.5008 10.5169C46.9373 11.2596 48.4022 11.9683 49.6916 12.9813C50.9811 13.9945 52.1016 15.3545 52.5751 17.0208C52.9287 18.2652 52.9036 19.6172 52.6664 20.9045C52.4686 21.9791 52.1281 23.0162 51.7465 24.0337C51.3298 22.4238 50.5203 20.9248 49.5286 19.6472C48.0579 17.7523 46.2009 16.2749 44.3624 14.8161C47.4528 17.6675 49.7467 21.5404 50.8752 25.8112C49.3424 25.2459 47.8281 24.5857 46.465 23.6387C45.102 22.6917 43.889 21.4413 43.1176 19.8851C42.2293 18.0931 41.9695 16.002 41.8663 13.9532Z" fill="white"/>
</mask>
<g mask="url(#mask5_1_132)">
<path d="M40.2106 27.3658L55.2024 25.6046L53.6034 6.39519L38.6116 8.15632L40.2106 27.3658Z" fill="url(#paint1_linear_1_132)"/>
</g>
</g>
</g>
<defs>
<linearGradient id="paint0_linear_1_132" x1="61.7924" y1="27.61" x2="58.6441" y2="0.810507" gradientUnits="userSpaceOnUse">
<stop stop-color="#6DBA2F"/>
<stop offset="0.0078125" stop-color="#6DBA2F"/>
<stop offset="0.015625" stop-color="#6CBA2F"/>
<stop offset="0.0234375" stop-color="#6BB92F"/>
<stop offset="0.03125" stop-color="#6BB92F"/>
<stop offset="0.0390625" stop-color="#6AB830"/>
<stop offset="0.046875" stop-color="#6AB830"/>
<stop offset="0.0546875" stop-color="#69B730"/>
<stop offset="0.0625" stop-color="#68B730"/>
<stop offset="0.0703125" stop-color="#68B730"/>
<stop offset="0.078125" stop-color="#67B631"/>
<stop offset="0.0859375" stop-color="#67B631"/>
<stop offset="0.09375" stop-color="#66B531"/>
<stop offset="0.101563" stop-color="#65B531"/>
<stop offset="0.109375" stop-color="#65B431"/>
<stop offset="0.117188" stop-color="#64B432"/>
<stop offset="0.125" stop-color="#64B332"/>
<stop offset="0.132812" stop-color="#63B332"/>
<stop offset="0.140625" stop-color="#63B232"/>
<stop offset="0.148438" stop-color="#62B232"/>
<stop offset="0.15625" stop-color="#61B233"/>
<stop offset="0.164062" stop-color="#61B133"/>
<stop offset="0.171875" stop-color="#60B133"/>
<stop offset="0.179688" stop-color="#60B033"/>
<stop offset="0.1875" stop-color="#5FB033"/>
<stop offset="0.195312" stop-color="#5EAF34"/>
<stop offset="0.203125" stop-color="#5EAF34"/>
<stop offset="0.210938" stop-color="#5DAF34"/>
<stop offset="0.21875" stop-color="#5DAE34"/>
<stop offset="0.226562" stop-color="#5CAE34"/>
<stop offset="0.234375" stop-color="#5BAD34"/>
<stop offset="0.242187" stop-color="#5BAD35"/>
<stop offset="0.25" stop-color="#5AAC35"/>
<stop offset="0.257813" stop-color="#5AAC35"/>
<stop offset="0.265625" stop-color="#59AC35"/>
<stop offset="0.273438" stop-color="#59AB35"/>
<stop offset="0.28125" stop-color="#58AB36"/>
<stop offset="0.289062" stop-color="#57AA36"/>
<stop offset="0.296875" stop-color="#57AA36"/>
<stop offset="0.304688" stop-color="#56A936"/>
<stop offset="0.3125" stop-color="#56A936"/>
<stop offset="0.320312" stop-color="#55A936"/>
<stop offset="0.328125" stop-color="#55A837"/>
<stop offset="0.335938" stop-color="#54A837"/>
<stop offset="0.34375" stop-color="#53A737"/>
<stop offset="0.351562" stop-color="#53A737"/>
<stop offset="0.359375" stop-color="#52A637"/>
<stop offset="0.367188" stop-color="#52A637"/>
<stop offset="0.375" stop-color="#51A638"/>
<stop offset="0.382812" stop-color="#51A538"/>
<stop offset="0.390625" stop-color="#50A538"/>
<stop offset="0.398438" stop-color="#50A438"/>
<stop offset="0.40625" stop-color="#4FA438"/>
<stop offset="0.414062" stop-color="#4EA438"/>
<stop offset="0.421875" stop-color="#4EA339"/>
<stop offset="0.429688" stop-color="#4DA339"/>
<stop offset="0.4375" stop-color="#4DA239"/>
<stop offset="0.445313" stop-color="#4CA239"/>
<stop offset="0.453125" stop-color="#4CA139"/>
<stop offset="0.460938" stop-color="#4BA139"/>
<stop offset="0.46875" stop-color="#4BA13A"/>
<stop offset="0.476562" stop-color="#4AA03A"/>
<stop offset="0.484375" stop-color="#49A03A"/>
<stop offset="0.492188" stop-color="#499F3A"/>
<stop offset="0.5" stop-color="#489F3A"/>
<stop offset="0.507812" stop-color="#489F3A"/>
<stop offset="0.515625" stop-color="#479E3B"/>
<stop offset="0.523438" stop-color="#479E3B"/>
<stop offset="0.53125" stop-color="#469D3B"/>
<stop offset="0.539062" stop-color="#469D3B"/>
<stop offset="0.546875" stop-color="#459D3B"/>
<stop offset="0.554688" stop-color="#459C3B"/>
<stop offset="0.5625" stop-color="#449C3C"/>
<stop offset="0.570312" stop-color="#449B3C"/>
<stop offset="0.578125" stop-color="#439B3C"/>
<stop offset="0.585938" stop-color="#429B3C"/>
<stop offset="0.59375" stop-color="#429A3C"/>
<stop offset="0.601562" stop-color="#419A3C"/>
<stop offset="0.609375" stop-color="#419A3C"/>
<stop offset="0.617188" stop-color="#40993D"/>
<stop offset="0.625" stop-color="#40993D"/>
<stop offset="0.632812" stop-color="#3F983D"/>
<stop offset="0.640625" stop-color="#3F983D"/>
<stop offset="0.648438" stop-color="#3E983D"/>
<stop offset="0.65625" stop-color="#3E973D"/>
<stop offset="0.664062" stop-color="#3D973D"/>
<stop offset="0.671875" stop-color="#3D963E"/>
<stop offset="0.679688" stop-color="#3C963E"/>
<stop offset="0.6875" stop-color="#3C963E"/>
<stop offset="0.695312" stop-color="#3B953E"/>
<stop offset="0.703125" stop-color="#3B953E"/>
<stop offset="0.710938" stop-color="#3A953E"/>
<stop offset="0.71875" stop-color="#39943E"/>
<stop offset="0.726562" stop-color="#39943F"/>
<stop offset="0.734375" stop-color="#38933F"/>
<stop offset="0.742188" stop-color="#38933F"/>
<stop offset="0.75" stop-color="#37933F"/>
<stop offset="0.757812" stop-color="#37923F"/>
<stop offset="0.765625" stop-color="#36923F"/>
<stop offset="0.773438" stop-color="#36923F"/>
<stop offset="0.78125" stop-color="#35913F"/>
<stop offset="0.789062" stop-color="#359140"/>
<stop offset="0.796875" stop-color="#349040"/>
<stop offset="0.804688" stop-color="#349040"/>
<stop offset="0.8125" stop-color="#339040"/>
<stop offset="0.820313" stop-color="#338F40"/>
<stop offset="0.828125" stop-color="#328F40"/>
<stop offset="0.835938" stop-color="#328F40"/>
<stop offset="0.84375" stop-color="#318E40"/>
<stop offset="0.851562" stop-color="#318E41"/>
<stop offset="0.859375" stop-color="#308E41"/>
<stop offset="0.867188" stop-color="#308D41"/>
<stop offset="0.875" stop-color="#2F8D41"/>
<stop offset="0.882812" stop-color="#2F8C41"/>
<stop offset="0.890625" stop-color="#2E8C41"/>
<stop offset="0.898438" stop-color="#2E8C41"/>
<stop offset="0.90625" stop-color="#2D8B41"/>
<stop offset="0.914062" stop-color="#2D8B42"/>
<stop offset="0.921875" stop-color="#2C8B42"/>
<stop offset="0.929688" stop-color="#2C8A42"/>
<stop offset="0.9375" stop-color="#2B8A42"/>
<stop offset="0.945312" stop-color="#2B8A42"/>
<stop offset="0.953125" stop-color="#2A8942"/>
<stop offset="0.960938" stop-color="#2A8942"/>
<stop offset="0.96875" stop-color="#298942"/>
<stop offset="0.976562" stop-color="#298843"/>
<stop offset="0.984375" stop-color="#288843"/>
<stop offset="1" stop-color="#288743"/>
</linearGradient>
<linearGradient id="paint1_linear_1_132" x1="48.1865" y1="26.4288" x2="45.9388" y2="7.29556" gradientUnits="userSpaceOnUse">
<stop stop-color="#65B431"/>
<stop offset="0.015625" stop-color="#65B431"/>
<stop offset="0.03125" stop-color="#64B432"/>
<stop offset="0.046875" stop-color="#63B332"/>
<stop offset="0.0625" stop-color="#62B232"/>
<stop offset="0.078125" stop-color="#61B233"/>
<stop offset="0.09375" stop-color="#60B133"/>
<stop offset="0.109375" stop-color="#60B033"/>
<stop offset="0.125" stop-color="#5FB033"/>
<stop offset="0.140625" stop-color="#5EAF34"/>
<stop offset="0.15625" stop-color="#5DAE34"/>
<stop offset="0.171875" stop-color="#5CAE34"/>
<stop offset="0.1875" stop-color="#5BAD34"/>
<stop offset="0.203125" stop-color="#5BAD35"/>
<stop offset="0.21875" stop-color="#5AAC35"/>
<stop offset="0.234375" stop-color="#59AB35"/>
<stop offset="0.25" stop-color="#58AB35"/>
<stop offset="0.265625" stop-color="#57AA36"/>
<stop offset="0.28125" stop-color="#57AA36"/>
<stop offset="0.296875" stop-color="#56A936"/>
<stop offset="0.3125" stop-color="#55A837"/>
<stop offset="0.328125" stop-color="#54A837"/>
<stop offset="0.34375" stop-color="#53A737"/>
<stop offset="0.359375" stop-color="#52A737"/>
<stop offset="0.375" stop-color="#52A637"/>
<stop offset="0.390625" stop-color="#51A538"/>
<stop offset="0.40625" stop-color="#50A538"/>
<stop offset="0.421875" stop-color="#4FA438"/>
<stop offset="0.4375" stop-color="#4FA438"/>
<stop offset="0.453125" stop-color="#4EA339"/>
<stop offset="0.46875" stop-color="#4DA239"/>
<stop offset="0.484375" stop-color="#4CA239"/>
<stop offset="0.5" stop-color="#4BA139"/>
<stop offset="0.515625" stop-color="#4BA13A"/>
<stop offset="0.53125" stop-color="#4AA03A"/>
<stop offset="0.546875" stop-color="#49A03A"/>
<stop offset="0.5625" stop-color="#489F3A"/>
<stop offset="0.578125" stop-color="#479E3B"/>
<stop offset="0.59375" stop-color="#479E3B"/>
<stop offset="0.609375" stop-color="#469D3B"/>
<stop offset="0.625" stop-color="#459D3B"/>
<stop offset="0.640625" stop-color="#449C3B"/>
<stop offset="0.65625" stop-color="#449C3C"/>
<stop offset="0.671875" stop-color="#439B3C"/>
<stop offset="0.6875" stop-color="#429A3C"/>
<stop offset="0.703125" stop-color="#419A3C"/>
<stop offset="0.71875" stop-color="#41993C"/>
<stop offset="0.734375" stop-color="#40993D"/>
<stop offset="0.75" stop-color="#3F983D"/>
<stop offset="0.765625" stop-color="#3E983D"/>
<stop offset="0.78125" stop-color="#3E973D"/>
<stop offset="0.796875" stop-color="#3D973E"/>
<stop offset="0.8125" stop-color="#3C963E"/>
<stop offset="0.828125" stop-color="#3B953E"/>
<stop offset="0.84375" stop-color="#3B953E"/>
<stop offset="0.859375" stop-color="#3A943E"/>
<stop offset="0.875" stop-color="#39943F"/>
<stop offset="0.890625" stop-color="#38933F"/>
<stop offset="0.90625" stop-color="#38933F"/>
<stop offset="0.921875" stop-color="#37923F"/>
<stop offset="0.9375" stop-color="#36923F"/>
<stop offset="0.953125" stop-color="#35913F"/>
<stop offset="0.96875" stop-color="#359140"/>
<stop offset="0.984375" stop-color="#349040"/>
<stop offset="1" stop-color="#339040"/>
</linearGradient>
</defs>
</svg>
